<?xml version="1.0" encoding="utf-8"?>
<!-- Generator: Adobe Illustrator 20.1.0, SVG Export Plug-In . SVG Version: 6.00 Build 0)  -->
<svg version="1.1" id="Layer_1" xmlns="http://www.w3.org/2000/svg" xmlns:xlink="http://www.w3.org/1999/xlink" x="0px" y="0px"
	 viewBox="0 0 500 500" style="enable-background:new 0 0 500 500;" xml:space="preserve">
<style type="text/css">
	.st0{fill:#FF6666;stroke:#FFFFFF;stroke-width:2;stroke-miterlimit:10;}
	.st1{fill:none;}
	.st2{fill:#FFFFFF;}
	.st3{font-family:'MyriadPro-Regular';}
	.st4{font-size:130.0667px;}
	.st5{fill:#64AEFF;stroke:#FFFFFF;stroke-width:2;stroke-miterlimit:10;}
</style>
<path class="st0" d="M297,135H118.7C91.8,135,66,153.9,66,180.8v63.3c0,26.8,24,48.7,49,48.9v48.2l40.6-45.2H297
	c26.9,0,46-25.1,46-51.9v-63.3C343,153.9,323.9,135,297,135z"/>
<rect x="154.4" y="156.9" class="st1" width="110.4" height="119.6"/>
<text transform="matrix(1 0 0 1 154.418 249.2451)" class="st2 st3 st4">@</text>
<path class="st5" d="M416.2,204H237.9c-26.9,0-54.9,16.7-54.9,43.6v63.3c0,26.9,28,54.1,54.9,54.1h141.4l31.7,43v-48.2
	c27-0.1,49-22.1,49-48.9v-63.3C460,220.7,443.1,204,416.2,204z"/>
<rect x="273.1" y="227.5" class="st1" width="110.4" height="119.6"/>
<text transform="matrix(1 0 0 1 273.0898 319.8594)" class="st2 st3 st4">@</text>
</svg>
